<svg width="20" height="16" viewBox="0 0 20 16" fill="none" xmlns="http://www.w3.org/2000/svg">
<path d="M4.05938 7.14062C4.47501 4.23438 6.97813 2 10 2C11.6563 2 13.1563 2.67188 14.2438 3.75625C14.25 3.7625 14.2563 3.76875 14.2625 3.775L14.5 4H13.0031C12.45 4 12.0031 4.44688 12.0031 5C12.0031 5.55312 12.45 6 13.0031 6H17.0031C17.5563 6 18.0031 5.55312 18.0031 5V1C18.0031 0.446875 17.5563 0 17.0031 0C16.45 0 16.0031 0.446875 16.0031 1V2.66875L15.65 2.33437C14.2031 0.89375 12.2031 0 10 0C5.96876 0 2.63438 2.98125 2.08126 6.85938C2.00313 7.40625 2.38126 7.9125 2.92813 7.99062C3.47501 8.06875 3.98126 7.6875 4.05938 7.14375V7.14062ZM17.9188 9.14062C17.9969 8.59375 17.6156 8.0875 17.0719 8.00937C16.5281 7.93125 16.0188 8.3125 15.9406 8.85625C15.525 11.7625 13.0219 13.9969 10 13.9969C8.34376 13.9969 6.84376 13.325 5.75626 12.2406C5.75001 12.2344 5.74376 12.2281 5.73751 12.2219L5.50001 11.9969H6.99688C7.55001 11.9969 7.99688 11.55 7.99688 10.9969C7.99688 10.4437 7.55001 9.99687 6.99688 9.99687L3.00001 10C2.73438 10 2.47813 10.1062 2.29063 10.2969C2.10313 10.4875 1.99688 10.7406 2.00001 11.0094L2.03126 14.9781C2.03438 15.5312 2.48751 15.975 3.04063 15.9688C3.59376 15.9625 4.03751 15.5125 4.03126 14.9594L4.01876 13.35L4.35313 13.6656C5.80001 15.1062 7.79688 16 10 16C14.0313 16 17.3656 13.0188 17.9188 9.14062Z" fill="#4A5565"/>
</svg>
